<?xml version="1.0" standalone="no"?>
<!DOCTYPE svg PUBLIC "-//W3C//DTD SVG 20010904//EN"
 "http://www.w3.org/TR/2001/REC-SVG-20010904/DTD/svg10.dtd">
<svg version="1.0" xmlns="http://www.w3.org/2000/svg"
 width="310.000000pt" height="308.000000pt" viewBox="0 0 310.000000 308.000000"
 preserveAspectRatio="xMidYMid meet">

<g transform="translate(0.000000,308.000000) scale(0.100000,-0.100000)"
fill="#000000" stroke="none">
<path d="M435 2896 c-98 -31 -174 -95 -220 -186 -22 -43 -29 -74 -35 -155 -4
-55 -6 -548 -5 -1095 l1 -995 23 -74 c24 -79 65 -151 86 -151 7 0 15 -7 18
-15 12 -30 89 -67 161 -77 115 -17 2055 -18 2136 -2 37 7 78 15 93 18 32 6
119 64 112 75 -6 10 35 64 43 57 8 -9 40 48 46 80 2 16 10 54 16 85 7 39 10
380 8 1115 l-3 1059 -29 63 c-41 89 -125 165 -212 192 -65 20 -87 20 -1133 19
-830 0 -1075 -3 -1106 -13z m1220 -390 c145 -12 313 -77 463 -179 45 -32 85
-57 88 -57 11 0 130 -95 162 -129 18 -20 35 -46 38 -58 7 -28 24 -20 25 10 0
12 3 16 6 9 2 -6 8 -10 13 -7 21 13 99 -288 100 -385 0 -38 15 -31 23 10 12
65 5 -110 -8 -217 -40 -326 -171 -585 -378 -749 -98 -77 -184 -123 -295 -158
-280 -88 -579 -69 -817 51 -237 120 -443 395 -517 691 -13 51 -27 90 -31 86
-7 -8 0 98 14 198 12 86 12 97 -1 78 -29 -45 8 72 62 196 26 59 37 99 41 159
7 84 27 168 49 198 7 10 24 19 38 22 21 4 29 -2 44 -30 11 -19 24 -35 30 -35
11 0 54 26 66 39 3 3 30 26 60 51 30 24 56 48 58 52 2 5 8 8 14 8 6 0 36 15
67 34 52 32 83 44 231 90 96 30 186 36 355 22z"/>
<path d="M1345 2465 c-152 -33 -299 -112 -417 -223 -37 -35 -68 -68 -68 -73 0
-5 16 -9 36 -9 19 0 33 -4 29 -9 -3 -5 29 -11 72 -14 76 -4 81 -3 165 39 48
24 96 44 106 44 10 0 24 6 31 13 7 6 -1 -13 -17 -43 -17 -30 -34 -73 -37 -96
-6 -34 -3 -45 20 -72 15 -18 23 -32 18 -32 -4 -1 10 -9 32 -20 26 -12 62 -19
102 -20 74 0 93 -6 93 -31 0 -19 -27 -42 -130 -112 l-65 -43 3 -73 4 -72 -29
8 c-52 14 -85 7 -111 -22 -19 -23 -23 -36 -19 -67 3 -21 13 -50 24 -65 10 -14
23 -33 28 -42 26 -40 109 -81 166 -81 22 0 74 11 115 25 41 14 93 25 115 25
47 0 135 -35 143 -57 9 -21 -3 -34 -27 -32 -37 2 -40 1 -125 -55 -90 -60 -143
-76 -250 -76 l-67 -1 40 -35 c22 -20 39 -40 38 -45 -2 -4 4 -6 13 -2 9 3 14 0
12 -8 -5 -20 85 -64 172 -84 152 -35 275 -1 375 102 34 35 66 63 73 63 7 0 12
3 12 8 0 4 9 13 19 19 18 12 19 10 14 -25 l-5 -37 31 35 c48 55 72 131 78 247
5 92 8 102 27 107 12 3 23 1 24 -4 2 -6 7 -10 12 -10 17 0 30 95 30 220 0 98
3 129 12 124 8 -5 9 -2 5 9 -9 23 2 21 30 -5 33 -31 29 -8 -11 76 -56 116
-139 196 -280 272 -33 19 -53 34 -44 34 11 0 15 5 12 14 -4 10 9 15 47 20 l53
7 -30 19 c-16 11 -67 31 -114 46 -114 34 -114 34 -42 31 34 -1 62 0 62 3 0 11
-134 61 -212 80 -98 24 -298 26 -393 5z"/>
</g>
</svg>
