<?xml version="1.0" standalone="no"?>
<!DOCTYPE svg PUBLIC "-//W3C//DTD SVG 20010904//EN"
 "http://www.w3.org/TR/2001/REC-SVG-20010904/DTD/svg10.dtd">
<svg version="1.0" xmlns="http://www.w3.org/2000/svg"
 width="225.000000pt" height="225.000000pt" viewBox="0 0 225.000000 225.000000"
 preserveAspectRatio="xMidYMid meet">

<g transform="translate(0.000000,225.000000) scale(0.100000,-0.100000)"
fill="#000000" stroke="none">
<path d="M927 2224 c-427 -77 -772 -396 -887 -821 -31 -112 -39 -364 -16 -486
80 -425 396 -764 820 -880 71 -19 106 -22 281 -22 175 0 210 3 281 22 308 85
567 290 708 563 57 110 91 208 112 317 23 122 15 374 -16 486 -116 431 -461
746 -898 822 -104 18 -281 18 -385 -1z m358 -589 c55 -8 131 -22 169 -30 192
-44 429 -143 470 -198 31 -42 28 -99 -8 -136 -45 -47 -68 -46 -186 9 -128 60
-232 94 -364 120 -277 55 -570 53 -814 -5 -93 -22 -106 -23 -137 -11 -64 27
-84 111 -39 165 36 44 179 81 383 101 117 12 404 3 526 -15z m-22 -394 c140
-28 269 -71 384 -127 102 -50 143 -89 143 -136 0 -36 -48 -88 -81 -88 -12 0
-72 25 -133 55 -176 87 -356 130 -581 141 -128 7 -316 -12 -410 -41 -71 -21
-102 -19 -130 10 -34 33 -35 96 -2 129 24 24 111 49 251 72 123 20 422 12 559
-15z m-172 -342 c128 -12 246 -41 353 -84 164 -66 221 -114 201 -172 -6 -15
-22 -34 -36 -42 -25 -14 -32 -12 -130 36 -181 90 -307 117 -534 116 -109 0
-192 -6 -260 -18 -169 -30 -161 -30 -191 0 -21 21 -25 32 -20 58 10 47 24 56
127 77 175 36 334 45 490 29z"/>
</g>
</svg>
