<?xml version="1.0" standalone="no"?>
<!DOCTYPE svg PUBLIC "-//W3C//DTD SVG 20010904//EN"
 "http://www.w3.org/TR/2001/REC-SVG-20010904/DTD/svg10.dtd">
<svg version="1.0" xmlns="http://www.w3.org/2000/svg"
 width="512.000000pt" height="512.000000pt" viewBox="0 0 512.000000 512.000000"
 preserveAspectRatio="xMidYMid meet">

<g transform="translate(0.000000,512.000000) scale(0.100000,-0.100000)"
fill="#000000" stroke="none">
<path d="M2353 4890 c-996 -97 -1813 -794 -2058 -1754 -53 -209 -69 -342 -69
-576 0 -234 16 -367 69 -575 80 -312 203 -569 402 -838 89 -120 314 -348 428
-434 337 -254 697 -407 1105 -470 160 -24 501 -24 660 1 505 78 937 290 1293
636 379 367 613 822 694 1350 24 159 24 501 0 660 -39 249 -108 473 -216 695
-340 697 -996 1175 -1771 1290 -129 19 -413 27 -537 15z m-180 -1281 c11 -7
309 -229 662 -495 401 -302 646 -493 653 -509 15 -33 15 -57 0 -91 -8 -17
-245 -201 -670 -520 -735 -552 -696 -528 -764 -460 l-34 34 0 992 0 992 34 34
c36 36 78 44 119 23z"/>
</g>
</svg>
